<svg xmlns="http://www.w3.org/2000/svg" width="18" height="18" viewBox="0 0 18 18">
  <path id="_004-gorjeo" data-name="004-gorjeo" d="M9,0a9,9,0,1,0,9,9A9,9,0,0,0,9,0Zm4.109,7.017q.006.133.006.267a5.838,5.838,0,0,1-5.878,5.878h0a5.847,5.847,0,0,1-3.166-.928,4.2,4.2,0,0,0,.493.029,4.145,4.145,0,0,0,2.566-.884A2.068,2.068,0,0,1,5.2,9.943a2.059,2.059,0,0,0,.933-.035A2.066,2.066,0,0,1,4.476,7.883c0-.009,0-.018,0-.026a2.051,2.051,0,0,0,.936.258,2.068,2.068,0,0,1-.64-2.758A5.865,5.865,0,0,0,9.03,7.515a2.067,2.067,0,0,1,3.52-1.884,4.143,4.143,0,0,0,1.312-.5,2.074,2.074,0,0,1-.908,1.143,4.12,4.12,0,0,0,1.186-.325A4.2,4.2,0,0,1,13.109,7.017Zm0,0" fill="#fff"/>
</svg>
