<svg id="_006-instagram" data-name="006-instagram" xmlns="http://www.w3.org/2000/svg" width="18" height="18" viewBox="0 0 18 18">
  <path id="Trazado_544" data-name="Trazado 544" d="M210.445,208.723A1.723,1.723,0,1,1,208.723,207,1.723,1.723,0,0,1,210.445,208.723Zm0,0" transform="translate(-199.723 -199.723)" fill="#fff"/>
  <path id="Trazado_545" data-name="Trazado 545" d="M143.75,136.677a1.711,1.711,0,0,0-.981-.981,2.859,2.859,0,0,0-.96-.178c-.545-.025-.708-.03-2.088-.03s-1.543.005-2.088.03a2.861,2.861,0,0,0-.96.178,1.712,1.712,0,0,0-.981.981,2.86,2.86,0,0,0-.178.96c-.025.545-.03.708-.03,2.088s.005,1.543.03,2.088a2.859,2.859,0,0,0,.178.96,1.711,1.711,0,0,0,.981.981,2.856,2.856,0,0,0,.96.178c.545.025.708.03,2.088.03s1.544-.005,2.088-.03a2.856,2.856,0,0,0,.96-.178,1.711,1.711,0,0,0,.981-.981,2.862,2.862,0,0,0,.178-.96c.025-.545.03-.708.03-2.088s-.005-1.543-.03-2.088A2.856,2.856,0,0,0,143.75,136.677Zm-4.029,5.7a2.654,2.654,0,1,1,2.654-2.654A2.654,2.654,0,0,1,139.721,142.379Zm2.759-4.792a.62.62,0,1,1,.62-.62A.62.62,0,0,1,142.48,137.587Zm0,0" transform="translate(-130.721 -130.725)" fill="#fff"/>
  <path id="Trazado_546" data-name="Trazado 546" d="M9,0a9,9,0,1,0,9,9A9,9,0,0,0,9,0Zm5.137,11.131a3.792,3.792,0,0,1-.24,1.255A2.642,2.642,0,0,1,12.385,13.9a3.794,3.794,0,0,1-1.254.24c-.551.025-.727.031-2.131.031s-1.58-.006-2.131-.031a3.794,3.794,0,0,1-1.254-.24A2.642,2.642,0,0,1,4.1,12.385a3.791,3.791,0,0,1-.24-1.254C3.838,10.58,3.832,10.4,3.832,9s.006-1.58.031-2.131A3.792,3.792,0,0,1,4.1,5.615,2.644,2.644,0,0,1,5.615,4.1a3.8,3.8,0,0,1,1.255-.24C7.42,3.838,7.6,3.832,9,3.832s1.58.006,2.131.031a3.8,3.8,0,0,1,1.255.24A2.643,2.643,0,0,1,13.9,5.615a3.791,3.791,0,0,1,.24,1.255c.025.551.031.727.031,2.131S14.162,10.58,14.137,11.131Zm0,0" fill="#fff"/>
</svg>
